0
SECTION
2
HEADER
9
$INSUNITS
70
4
9
$ACADVER
1
AC1014
9
$HANDSEED
5
FFFF
0
ENDSEC
0
SECTION
2
TABLES
0
TABLE
2
VPORT
5
8
100
AcDbSymbolTable
0
ENDTAB
0
TABLE
2
LTYPE
5
5
100
AcDbSymbolTable
0
LTYPE
5
14
100
AcDbSymbolTableRecord
100
AcDbLinetypeTableRecord
2
BYBLOCK
70
0
0
LTYPE
5
15
100
AcDbSymbolTableRecord
100
AcDbLinetypeTableRecord
2
BYLAYER
70
0
0
ENDTAB
0
TABLE
2
LAYER
5
2
100
AcDbSymbolTable
70
2
0
LAYER
5
50
100
AcDbSymbolTableRecord
100
AcDbLayerTableRecord
2
0
70
0
6
CONTINUOUS
0
ENDTAB
0
TABLE
2
STYLE
5
3
100
AcDbSymbolTable
70
1
0
STYLE
5
11
100
AcDbSymbolTableRecord
100
AcDbTextStyleTableRecord
2
STANDARD
70
0
0
ENDTAB
0
TABLE
2
VIEW
5
6
100
AcDbSymbolTable
70
0
0
ENDTAB
0
TABLE
2
UCS
5
7
100
AcDbSymbolTable
70
0
0
ENDTAB
0
TABLE
2
APPID
5
9
100
AcDbSymbolTable
70
2
0
APPID
5
12
100
AcDbSymbolTableRecord
100
AcDbRegAppTableRecord
2
ACAD
70
0
0
ENDTAB
0
TABLE
2
DIMSTYLE
5
A
100
AcDbSymbolTable
70
1
0
ENDTAB
0
TABLE
2
BLOCK_RECORD
5
1
100
AcDbSymbolTable
70
1
0
BLOCK_RECORD
5
1F
100
AcDbSymbolTableRecord
100
AcDbBlockTableRecord
2
*MODEL_SPACE
0
BLOCK_RECORD
5
1B
100
AcDbSymbolTableRecord
100
AcDbBlockTableRecord
2
*PAPER_SPACE
0
ENDTAB
0
ENDSEC
0
SECTION
2
BLOCKS
0
BLOCK
5
20
100
AcDbEntity
100
AcDbBlockBegin
2
*MODEL_SPACE
0
ENDBLK
5
21
100
AcDbEntity
100
AcDbBlockEnd
0
BLOCK
5
1C
100
AcDbEntity
100
AcDbBlockBegin
2
*PAPER_SPACE
0
ENDBLK
5
1D
100
AcDbEntity
100
AcDbBlockEnd
0
ENDSEC
0
SECTION
2
ENTITIES
0
LWPOLYLINE
5
100
100
AcDbEntity
8
0
100
AcDbPolyline
90
44
70
1
43
0.0
10
-1095.0155
20
31.498999999999953
10
-1095.0155
20
17.998999999999938
10
-1095.0155
20
-144.00100000000009
10
-1095.0155
20
-162.50100000000009
42
0.41421356237309503
10
-1094.0155000000002
20
-163.50100000000003
10
-1085.0155
20
-163.50100000000012
42
-0.41421356237309503
10
-1074.5155000000002
20
-174.00100000000009
10
-1074.5155
20
-186.50100000000009
42
-0.41421356237309503
10
-1075.5155
20
-187.50100000000009
10
-1081.0155
20
-187.50100000000009
42
0.41421356237309503
10
-1082.0155000000002
20
-188.50100000000012
10
-1082.0155000000002
20
-209.50100000000015
42
0.41421356237307422
10
-1081.0155
20
-210.50100000000009
10
-1075.5155
20
-210.50100000000015
42
-0.41421356237309503
10
-1074.5155000000002
20
-211.50100000000009
10
-1074.5155000000002
20
-224.00100000000009
42
-0.41421356237309503
10
-1085.0155
20
-234.50100000000006
10
-1094.0155000000002
20
-234.50100000000006
42
0.41421356237309503
10
-1095.0155
20
-235.50100000000009
10
-1095.0155
20
-249.00100000000009
10
-1095.0155622418617
20
-275.50094194177296
42
0.41421425030756948
10
-1090.0155622418756
20
-280.50095368554616
10
-690.01557398566251
20
-280.50095368554616
42
0.4142135623730992
10
-685.01557398566263
20
-275.50095368554616
10
-685.01557398566251
20
144.49904631445384
42
0.41421356237309709
10
-690.01557398566251
20
149.49904631445384
10
-1090.0155600261085
20
149.49904631445384
42
0.41421438010394179
10
-1095.0155600260889
20
144.49903235491931
10
-1095.0155
20
122.99899999999994
10
-1095.0155
20
104.49899999999992
42
0.41421356237309503
10
-1094.0155000000002
20
103.49899999999998
10
-1085.0155
20
103.49899999999991
42
-0.41421356237309503
10
-1074.5155000000002
20
92.998999999999938
10
-1074.5155
20
80.498999999999938
42
-0.41421356237309503
10
-1075.5155
20
79.498999999999924
10
-1081.0155
20
79.498999999999924
42
0.41421356237309503
10
-1082.0155000000002
20
78.49899999999991
10
-1082.0155000000002
20
57.498999999999896
42
0.41421356237307422
10
-1081.0155
20
56.498999999999953
10
-1075.5155
20
56.498999999999882
42
-0.41421356237309503
10
-1074.5155000000002
20
55.498999999999938
10
-1074.5155000000002
20
42.998999999999938
42
-0.41421356237309503
10
-1085.0155
20
32.498999999999967
10
-1094.0155000000002
20
32.498999999999967
42
0.41421356237309503
0
CIRCLE
5
101
100
AcDbEntity
8
0
100
AcDbCircle
10
-719.51557398566251
20
-254.50095368554614
30
0
40
1.7000000000000171
210
0
220
0
230
1
0
LINE
5
102
100
AcDbEntity
8
0
100
AcDbLine
10
-1095.0155
20
31.498999999999953
30
0
11
-1095.0155
21
17.998999999999938
31
0
0
CIRCLE
5
103
100
AcDbEntity
8
0
100
AcDbCircle
10
-719.51557398566251
20
123.49904631445385
30
0
40
1.6999999999999624
210
0
220
0
230
1
0
LINE
5
104
100
AcDbEntity
8
0
100
AcDbLine
10
-1082.0155000000002
20
78.49899999999991
30
0
11
-1082.0155000000002
21
57.498999999999896
31
0
0
CIRCLE
5
105
100
AcDbEntity
8
0
100
AcDbCircle
10
-711.0155739856624
20
123.49904631445385
30
0
40
1.6999999999999669
210
0
220
0
230
1
0
CIRCLE
5
106
100
AcDbEntity
8
0
100
AcDbCircle
10
-711.0155739856624
20
-254.50095368554614
30
0
40
1.7000000000000171
210
0
220
0
230
1
0
ARC
5
107
100
AcDbEntity
8
0
100
AcDbCircle
10
-1094.0155000000002
20
31.498999999999953
30
0
40
1.0000000000000142
210
0
220
-0
230
1
100
AcDbArc
50
90
51
180
0
CIRCLE
5
108
100
AcDbEntity
8
0
100
AcDbCircle
10
-1072.0155000000002
20
-199.00100000000009
30
0
40
1.6999999999999893
210
0
220
0
230
1
0
LINE
5
109
100
AcDbEntity
8
0
100
AcDbLine
10
-1094.0155000000002
20
103.49899999999998
30
0
11
-1085.0155
21
103.49899999999998
31
0
0
ARC
5
110
100
AcDbEntity
8
0
100
AcDbCircle
10
-1085.0155
20
42.998999999999938
30
0
40
10.499999999999972
210
0
220
0
230
1
100
AcDbArc
50
-90
51
0
0
CIRCLE
5
111
100
AcDbEntity
8
0
100
AcDbCircle
10
-1057.0155000000002
20
-199.00100000000009
30
0
40
1.6999999999999893
210
0
220
0
230
1
0
CIRCLE
5
112
100
AcDbEntity
8
0
100
AcDbCircle
10
-1072.0155000000002
20
67.998999999999938
30
0
40
1.6999999999999893
210
0
220
0
230
1
0
CIRCLE
5
113
100
AcDbEntity
8
0
100
AcDbCircle
10
-1072.0155000000002
20
67.998999999999938
30
0
40
1.6999999999999893
210
0
220
0
230
1
0
LINE
5
114
100
AcDbEntity
8
0
100
AcDbLine
10
-1074.5155000000002
20
55.498999999999938
30
0
11
-1074.5155
21
42.998999999999938
31
0
0
ARC
5
115
100
AcDbEntity
8
0
100
AcDbCircle
10
-1081.0155
20
57.498999999999967
30
0
40
1.0000000000000853
210
0
220
0
230
1
100
AcDbArc
50
180
51
270
0
ARC
5
116
100
AcDbEntity
8
0
100
AcDbCircle
10
-1075.5155
20
55.498999999999938
30
0
40
0.99999999999994316
210
0
220
0
230
1
100
AcDbArc
50
0
51
90
0
LINE
5
117
100
AcDbEntity
8
0
100
AcDbLine
10
-1095.0155
20
122.99899999999994
30
0
11
-1095.0155
21
104.49899999999992
31
0
0
CIRCLE
5
118
100
AcDbEntity
8
0
100
AcDbCircle
10
-1057.0155000000002
20
67.998999999999938
30
0
40
1.6999999999999893
210
0
220
0
230
1
0
LINE
5
119
100
AcDbEntity
8
0
100
AcDbLine
10
-1081.0155
20
56.498999999999953
30
0
11
-1075.5155
21
56.498999999999953
31
0
0
LINE
5
120
100
AcDbEntity
8
0
100
AcDbLine
10
-1094.0155000000002
20
32.498999999999967
30
0
11
-1085.0155
21
32.498999999999967
31
0
0
CIRCLE
5
121
100
AcDbEntity
8
0
100
AcDbCircle
10
-1057.0155000000002
20
67.998999999999938
30
0
40
1.6999999999999893
210
0
220
0
230
1
0
LINE
5
122
100
AcDbEntity
8
0
100
AcDbLine
10
-1081.0155
20
79.498999999999924
30
0
11
-1075.5155
21
79.498999999999924
31
0
0
LINE
5
123
100
AcDbEntity
8
0
100
AcDbLine
10
-1074.5155000000002
20
92.998999999999938
30
0
11
-1074.5155000000002
21
80.498999999999938
31
0
0
ARC
5
124
100
AcDbEntity
8
0
100
AcDbCircle
10
-1085.0155
20
92.998999999999938
30
0
40
10.499999999999972
210
0
220
0
230
1
100
AcDbArc
50
0
51
90
0
ARC
5
125
100
AcDbEntity
8
0
100
AcDbCircle
10
-1081.0155
20
78.49899999999991
30
0
40
1.0000000000000142
210
0
220
-0
230
1
100
AcDbArc
50
90
51
180
0
ARC
5
126
100
AcDbEntity
8
0
100
AcDbCircle
10
-1094.0155000000002
20
104.49899999999992
30
0
40
0.99999999999994316
210
0
220
0
230
1
100
AcDbArc
50
180
51
270
0
ARC
5
127
100
AcDbEntity
8
0
100
AcDbCircle
10
-1075.5155
20
80.498999999999938
30
0
40
1.0000000000000142
210
0
220
0
230
1
100
AcDbArc
50
-90
51
0
0
ENDSEC
0
SECTION
2
OBJECTS
0
DICTIONARY
5
C
100
AcDbDictionary
3
ACAD_GROUP
350
D
3
ACAD_MLINESTYLE
350
17
0
DICTIONARY
5
D
100
AcDbDictionary
0
DICTIONARY
5
1A
330
C
100
AcDbDictionary
0
DICTIONARY
5
17
100
AcDbDictionary
0
ENDSEC
0
EOF
