0
SECTION
2
HEADER
9
$INSUNITS
70
4
9
$ACADVER
1
AC1014
9
$HANDSEED
5
FFFF
0
ENDSEC
0
SECTION
2
TABLES
0
TABLE
2
VPORT
5
8
100
AcDbSymbolTable
0
ENDTAB
0
TABLE
2
LTYPE
5
5
100
AcDbSymbolTable
0
LTYPE
5
14
100
AcDbSymbolTableRecord
100
AcDbLinetypeTableRecord
2
BYBLOCK
70
0
0
LTYPE
5
15
100
AcDbSymbolTableRecord
100
AcDbLinetypeTableRecord
2
BYLAYER
70
0
0
ENDTAB
0
TABLE
2
LAYER
5
2
100
AcDbSymbolTable
70
2
0
LAYER
5
50
100
AcDbSymbolTableRecord
100
AcDbLayerTableRecord
2
0
70
0
6
CONTINUOUS
0
ENDTAB
0
TABLE
2
STYLE
5
3
100
AcDbSymbolTable
70
1
0
STYLE
5
11
100
AcDbSymbolTableRecord
100
AcDbTextStyleTableRecord
2
STANDARD
70
0
0
ENDTAB
0
TABLE
2
VIEW
5
6
100
AcDbSymbolTable
70
0
0
ENDTAB
0
TABLE
2
UCS
5
7
100
AcDbSymbolTable
70
0
0
ENDTAB
0
TABLE
2
APPID
5
9
100
AcDbSymbolTable
70
2
0
APPID
5
12
100
AcDbSymbolTableRecord
100
AcDbRegAppTableRecord
2
ACAD
70
0
0
ENDTAB
0
TABLE
2
DIMSTYLE
5
A
100
AcDbSymbolTable
70
1
0
ENDTAB
0
TABLE
2
BLOCK_RECORD
5
1
100
AcDbSymbolTable
70
1
0
BLOCK_RECORD
5
1F
100
AcDbSymbolTableRecord
100
AcDbBlockTableRecord
2
*MODEL_SPACE
0
BLOCK_RECORD
5
1B
100
AcDbSymbolTableRecord
100
AcDbBlockTableRecord
2
*PAPER_SPACE
0
ENDTAB
0
ENDSEC
0
SECTION
2
BLOCKS
0
BLOCK
5
20
100
AcDbEntity
100
AcDbBlockBegin
2
*MODEL_SPACE
0
ENDBLK
5
21
100
AcDbEntity
100
AcDbBlockEnd
0
BLOCK
5
1C
100
AcDbEntity
100
AcDbBlockBegin
2
*PAPER_SPACE
0
ENDBLK
5
1D
100
AcDbEntity
100
AcDbBlockEnd
0
ENDSEC
0
SECTION
2
ENTITIES
0
LWPOLYLINE
5
100
100
AcDbEntity
8
0
100
AcDbPolyline
90
2
70
1
43
0.0
10
-548.3434667941649
20
-162.50914926792444
10
-548.3434667941649
20
81.507149267928838
0
LINE
5
101
100
AcDbEntity
8
0
100
AcDbLine
10
-543.34346679416467
20
199.49904631445384
30
0
11
-93.343466794164698
21
199.49904631445389
31
0
0
LINE
5
102
100
AcDbEntity
8
0
100
AcDbLine
10
-93.343466794164698
20
-280.50095368554611
30
0
11
-543.34346679416467
21
-280.50095368554616
31
0
0
ARC
5
103
100
AcDbEntity
8
0
100
AcDbCircle
10
-528.84350000000018
20
130.49900000000002
30
0
40
1.0000000000000142
210
0
220
0
230
1
100
AcDbArc
50
-90
51
0
0
CIRCLE
5
104
100
AcDbEntity
8
0
100
AcDbCircle
10
-525.34350000000006
20
117.99900000000001
30
0
40
1.6999999999999893
210
0
220
0
230
1
0
LINE
5
105
100
AcDbEntity
8
0
100
AcDbLine
10
-534.34349999999995
20
-187.501
30
0
11
-528.84350000000018
21
-187.501
31
0
0
LINE
5
106
100
AcDbEntity
8
0
100
AcDbLine
10
-547.34350000000006
20
-163.50099999999995
30
0
11
-538.34349999999995
21
-163.50099999999998
31
0
0
CIRCLE
5
107
100
AcDbEntity
8
0
100
AcDbCircle
10
-525.34350000000006
20
-199.00099999999998
30
0
40
1.6999999999999893
210
0
220
0
230
1
0
ARC
5
108
100
AcDbEntity
8
0
100
AcDbCircle
10
-93.343466794164627
20
-275.50095368554616
30
0
40
4.9999999999999645
210
0
220
0
230
1
100
AcDbArc
50
-90.00000000000081
51
0
0
CIRCLE
5
109
100
AcDbEntity
8
0
100
AcDbCircle
10
-114.34346679416471
20
-254.50095368554616
30
0
40
1.6999999999999991
210
0
220
0
230
1
0
ARC
5
110
100
AcDbEntity
8
0
100
AcDbCircle
10
-93.343466794164627
20
194.49904631445392
30
0
40
4.9999999999999289
210
-0
220
0
230
1
100
AcDbArc
50
0
51
90.00000000000081
0
CIRCLE
5
111
100
AcDbEntity
8
0
100
AcDbCircle
10
-122.84346679416473
20
-254.50095368554616
30
0
40
1.699999999999986
210
0
220
0
230
1
0
LINE
5
112
100
AcDbEntity
8
0
100
AcDbLine
10
-535.34350000000006
20
-188.50099999999998
30
0
11
-535.34350000000006
21
-209.50099999999998
31
0
0
CIRCLE
5
113
100
AcDbEntity
8
0
100
AcDbCircle
10
-510.34350000000006
20
117.99900000000001
30
0
40
1.6999999999999893
210
0
220
0
230
1
0
LINE
5
114
100
AcDbEntity
8
0
100
AcDbLine
10
-88.343466794164698
20
194.49904631445389
30
0
11
-88.343466794164698
21
-275.50095368554611
31
0
0
CIRCLE
5
115
100
AcDbEntity
8
0
100
AcDbCircle
10
-510.34350000000006
20
-199.00099999999998
30
0
40
1.6999999999999893
210
0
220
0
230
1
0
ARC
5
116
100
AcDbEntity
8
0
100
AcDbCircle
10
-538.34349999999995
20
142.99900000000002
30
0
40
10.499999999999972
210
0
220
0
230
1
100
AcDbArc
50
0
51
90
0
LINE
5
117
100
AcDbEntity
8
0
100
AcDbLine
10
-534.34349999999995
20
106.49900000000002
30
0
11
-528.84350000000018
21
106.49900000000002
31
0
0
LINE
5
118
100
AcDbEntity
8
0
100
AcDbLine
10
-527.84350000000006
20
105.49900000000001
30
0
11
-527.84350000000006
21
92.999000000000009
31
0
0
LINE
5
119
100
AcDbEntity
8
0
100
AcDbLine
10
-547.34350000000006
20
82.498999999999995
30
0
11
-538.34349999999995
21
82.498999999999995
31
0
0
LINE
5
120
100
AcDbEntity
8
0
100
AcDbLine
10
-527.84350000000006
20
-174.00099999999998
30
0
11
-527.84350000000006
21
-186.50099999999998
31
0
0
ARC
5
121
100
AcDbEntity
8
0
100
AcDbCircle
10
-528.84350000000018
20
105.49900000000001
30
0
40
1.0000000000000853
210
0
220
0
230
1
100
AcDbArc
50
0
51
90
0
LINE
5
122
100
AcDbEntity
8
0
100
AcDbLine
10
-548.34349999999995
20
162.99900000000002
30
0
11
-548.34349999999995
21
154.499
31
0
0
LINE
5
123
100
AcDbEntity
8
0
100
AcDbLine
10
-548.34349999999995
20
81.499000000000024
30
0
11
-548.34349999999995
21
67.998999999999995
31
0
0
LINE
5
124
100
AcDbEntity
8
0
100
AcDbLine
10
-548.3434667941649
20
154.49085073207553
30
0
11
-548.3434667941649
21
189.49904631445384
31
0
0
ARC
5
125
100
AcDbEntity
8
0
100
AcDbCircle
10
-547.34350000000006
20
81.499000000000024
30
0
40
0.99999999999997868
210
0
220
-0
230
1
100
AcDbArc
50
90
51
180
0
LINE
5
126
100
AcDbEntity
8
0
100
AcDbLine
10
-534.34349999999995
20
-210.50099999999998
30
0
11
-528.84350000000018
21
-210.50099999999998
31
0
0
LINE
5
127
100
AcDbEntity
8
0
100
AcDbLine
10
-534.34349999999995
20
129.499
30
0
11
-528.84350000000018
21
129.499
31
0
0
LINE
5
128
100
AcDbEntity
8
0
100
AcDbLine
10
-527.84350000000006
20
142.99900000000002
30
0
11
-527.84350000000006
21
130.49900000000002
31
0
0
LINE
5
129
100
AcDbEntity
8
0
100
AcDbLine
10
-548.3434667941649
20
-270.50095368554616
30
0
11
-548.3434667941649
21
-235.49285073207116
31
0
0
ARC
5
130
100
AcDbEntity
8
0
100
AcDbCircle
10
-538.34349999999995
20
-224.00099999999998
30
0
40
10.500000000000007
210
0
220
0
230
1
100
AcDbArc
50
-90
51
0
0
ARC
5
131
100
AcDbEntity
8
0
100
AcDbCircle
10
-528.84350000000018
20
-211.50099999999998
30
0
40
1.0000000000000853
210
0
220
0
230
1
100
AcDbArc
50
0
51
90
0
ARC
5
132
100
AcDbEntity
8
0
100
AcDbCircle
10
-543.34346679416467
20
-275.50095368554616
30
0
40
5
210
0
220
0
230
1
100
AcDbArc
50
180
51
270
0
ARC
5
133
100
AcDbEntity
8
0
100
AcDbCircle
10
-547.34350000000006
20
-235.50099999999998
30
0
40
0.99999999999997868
210
0
220
-0
230
1
100
AcDbArc
50
90
51
180
0
LINE
5
134
100
AcDbEntity
8
0
100
AcDbLine
10
-527.84350000000006
20
-211.50099999999998
30
0
11
-527.84350000000006
21
-224.00099999999998
31
0
0
ARC
5
135
100
AcDbEntity
8
0
100
AcDbCircle
10
-547.34350000000006
20
154.499
30
0
40
0.99999999999994316
210
0
220
0
230
1
100
AcDbArc
50
180
51
270
0
LINE
5
136
100
AcDbEntity
8
0
100
AcDbLine
10
-535.34350000000006
20
128.49899999999997
30
0
11
-535.34350000000006
21
107.499
31
0
0
ARC
5
137
100
AcDbEntity
8
0
100
AcDbCircle
10
-538.34349999999995
20
-174.00099999999998
30
0
40
10.499999999999972
210
0
220
0
230
1
100
AcDbArc
50
0
51
90
0
ARC
5
138
100
AcDbEntity
8
0
100
AcDbCircle
10
-534.34349999999995
20
-188.50099999999998
30
0
40
0.99999999999997868
210
0
220
-0
230
1
100
AcDbArc
50
90
51
180
0
ARC
5
139
100
AcDbEntity
8
0
100
AcDbCircle
10
-547.34350000000006
20
-162.501
30
0
40
0.99999999999994316
210
0
220
0
230
1
100
AcDbArc
50
180
51
270
0
ARC
5
140
100
AcDbEntity
8
0
100
AcDbCircle
10
-528.84350000000018
20
-186.50099999999998
30
0
40
1.0000000000000142
210
0
220
0
230
1
100
AcDbArc
50
-90
51
0
0
LINE
5
141
100
AcDbEntity
8
0
100
AcDbLine
10
-548.34349999999995
20
-154.00099999999998
30
0
11
-548.34349999999995
21
-162.501
31
0
0
CIRCLE
5
142
100
AcDbEntity
8
0
100
AcDbCircle
10
-122.84346679416473
20
173.49904631445386
30
0
40
1.6999999999999784
210
0
220
0
230
1
0
CIRCLE
5
143
100
AcDbEntity
8
0
100
AcDbCircle
10
-114.34346679416471
20
173.49904631445386
30
0
40
1.7000000000000171
210
0
220
0
230
1
0
ARC
5
144
100
AcDbEntity
8
0
100
AcDbCircle
10
-538.34349999999995
20
92.999000000000009
30
0
40
10.500000000000007
210
0
220
0
230
1
100
AcDbArc
50
-90
51
0
0
LINE
5
145
100
AcDbEntity
8
0
100
AcDbLine
10
-548.34346679416467
20
-275.50095368554611
30
0
11
-548.3434667941649
21
-235.49285073207116
31
0
0
LINE
5
146
100
AcDbEntity
8
0
100
AcDbLine
10
-547.34350000000006
20
153.49900000000005
30
0
11
-538.34349999999995
21
153.49900000000002
31
0
0
ARC
5
147
100
AcDbEntity
8
0
100
AcDbCircle
10
-534.34349999999995
20
128.49899999999997
30
0
40
1.0000000000000142
210
0
220
-0
230
1
100
AcDbArc
50
90
51
180
0
LINE
5
148
100
AcDbEntity
8
0
100
AcDbLine
10
-548.3434667941649
20
154.49085073207553
30
0
11
-548.34346679416456
21
194.49904631445384
31
0
0
ARC
5
149
100
AcDbEntity
8
0
100
AcDbCircle
10
-534.34349999999995
20
-209.50099999999998
30
0
40
1.0000000000000853
210
0
220
0
230
1
100
AcDbArc
50
180
51
270
0
ARC
5
150
100
AcDbEntity
8
0
100
AcDbCircle
10
-543.34346679416467
20
194.49904631445392
30
0
40
4.9999999999999289
210
0
220
-0
230
1
100
AcDbArc
50
90
51
180
0
LINE
5
151
100
AcDbEntity
8
0
100
AcDbLine
10
-548.34349999999995
20
-235.50099999999998
30
0
11
-548.34349999999995
21
-249.00099999999998
31
0
0
ARC
5
152
100
AcDbEntity
8
0
100
AcDbCircle
10
-534.34349999999995
20
107.499
30
0
40
1.0000000000000853
210
0
220
0
230
1
100
AcDbArc
50
180
51
270
0
LINE
5
153
100
AcDbEntity
8
0
100
AcDbLine
10
-547.34350000000006
20
-234.50099999999998
30
0
11
-538.34349999999995
21
-234.50099999999998
31
0
0
ENDSEC
0
SECTION
2
OBJECTS
0
DICTIONARY
5
C
100
AcDbDictionary
3
ACAD_GROUP
350
D
3
ACAD_MLINESTYLE
350
17
0
DICTIONARY
5
D
100
AcDbDictionary
0
DICTIONARY
5
1A
330
C
100
AcDbDictionary
0
DICTIONARY
5
17
100
AcDbDictionary
0
ENDSEC
0
EOF
