0
SECTION
2
HEADER
9
$INSUNITS
70
4
9
$ACADVER
1
AC1014
9
$HANDSEED
5
FFFF
0
ENDSEC
0
SECTION
2
TABLES
0
TABLE
2
VPORT
5
8
100
AcDbSymbolTable
0
ENDTAB
0
TABLE
2
LTYPE
5
5
100
AcDbSymbolTable
0
LTYPE
5
14
100
AcDbSymbolTableRecord
100
AcDbLinetypeTableRecord
2
BYBLOCK
70
0
0
LTYPE
5
15
100
AcDbSymbolTableRecord
100
AcDbLinetypeTableRecord
2
BYLAYER
70
0
0
ENDTAB
0
TABLE
2
LAYER
5
2
100
AcDbSymbolTable
70
2
0
LAYER
5
50
100
AcDbSymbolTableRecord
100
AcDbLayerTableRecord
2
0
70
0
6
CONTINUOUS
0
ENDTAB
0
TABLE
2
STYLE
5
3
100
AcDbSymbolTable
70
1
0
STYLE
5
11
100
AcDbSymbolTableRecord
100
AcDbTextStyleTableRecord
2
STANDARD
70
0
0
ENDTAB
0
TABLE
2
VIEW
5
6
100
AcDbSymbolTable
70
0
0
ENDTAB
0
TABLE
2
UCS
5
7
100
AcDbSymbolTable
70
0
0
ENDTAB
0
TABLE
2
APPID
5
9
100
AcDbSymbolTable
70
2
0
APPID
5
12
100
AcDbSymbolTableRecord
100
AcDbRegAppTableRecord
2
ACAD
70
0
0
ENDTAB
0
TABLE
2
DIMSTYLE
5
A
100
AcDbSymbolTable
70
1
0
ENDTAB
0
TABLE
2
BLOCK_RECORD
5
1
100
AcDbSymbolTable
70
1
0
BLOCK_RECORD
5
1F
100
AcDbSymbolTableRecord
100
AcDbBlockTableRecord
2
*MODEL_SPACE
0
BLOCK_RECORD
5
1B
100
AcDbSymbolTableRecord
100
AcDbBlockTableRecord
2
*PAPER_SPACE
0
ENDTAB
0
ENDSEC
0
SECTION
2
BLOCKS
0
BLOCK
5
20
100
AcDbEntity
100
AcDbBlockBegin
2
*MODEL_SPACE
0
ENDBLK
5
21
100
AcDbEntity
100
AcDbBlockEnd
0
BLOCK
5
1C
100
AcDbEntity
100
AcDbBlockBegin
2
*PAPER_SPACE
0
ENDBLK
5
1D
100
AcDbEntity
100
AcDbBlockEnd
0
ENDSEC
0
SECTION
2
ENTITIES
0
LWPOLYLINE
5
100
100
AcDbEntity
8
0
100
AcDbPolyline
90
62
70
1
43
0.0
10
-85.046999999999855
20
21.000000000000011
42
0.41421356237309503
10
-84.046999999999912
20
19.999999999999996
10
-78.546999999999798
20
19.999999999999964
42
-0.4142135623730846
10
-77.546999999999855
20
19.000000000000057
10
-77.546999999999784
20
-1.9999999999999618
42
-0.41421356237309503
10
-78.546999999999798
20
-2.999999999999976
10
-84.046999999999912
20
-2.999999999999976
42
0.41421356237309503
10
-85.046999999999855
20
-3.9999999999999902
10
-85.046999999999855
20
-16.499999999999986
42
0.41421356237309503
10
-74.546999999999883
20
-27.000000000000028
10
-65.546999999999827
20
-27.000000000000028
42
-0.41421356237309503
10
-64.546999999999883
20
-27.999999999999972
10
-64.546999999999883
20
-46.499999999999986
10
-64.546999999999883
20
-125
10
-64.546999999999855
20
-138.5
42
-0.41421356237309503
10
-65.546999999999827
20
-139.5
10
-74.546999999999883
20
-139.5
42
0.41421356237309503
10
-85.046999999999855
20
-150
10
-85.046999999999855
20
-162.5
42
0.41421356237309503
10
-84.046999999999912
20
-163.5
10
-78.546999999999798
20
-163.50000000000006
42
-0.4142135623730846
10
-77.546999999999855
20
-164.49999999999994
10
-77.546999999999784
20
-185.49999999999997
42
-0.41421356237309503
10
-78.546999999999798
20
-186.5
10
-84.046999999999912
20
-186.5
42
0.41421356237309503
10
-85.046999999999855
20
-187.5
10
-85.046999999999855
20
-200
42
0.41421356237309503
10
-74.546999999999883
20
-210.50000000000006
10
-65.546999999999827
20
-210.50000000000006
42
-0.41421356237309503
10
-64.546999999999883
20
-211.5
10
-64.546999999999883
20
-230
10
-64.546970154858116
20
-251.49999305926707
42
-0.41421396895187734
10
-69.546970154853227
20
-256.49999999999994
10
-569.54696321411564
20
-256.5
42
-0.41421356237309503
10
-574.54696321411564
20
-251.50000000000003
10
-574.54696321411564
20
268.5
42
-0.4142135623730992
10
-569.54696321411564
20
273.5
10
-69.546969053148189
20
273.50000000000011
42
-0.4142139044155711
10
-64.546969053151599
20
268.4999941609708
10
-64.546999999999883
20
242.00000000000003
10
-64.546999999999855
20
228.5
42
-0.41421356237309503
10
-65.546999999999827
20
227.50000000000003
10
-74.546999999999883
20
227.50000000000003
42
0.41421356237309503
10
-85.046999999999855
20
217.00000000000003
10
-85.046999999999855
20
204.50000000000003
42
0.41421356237309503
10
-84.046999999999912
20
203.5
10
-78.546999999999798
20
203.49999999999997
42
-0.4142135623730846
10
-77.546999999999855
20
202.50000000000006
10
-77.546999999999784
20
181.50000000000006
42
-0.41421356237309503
10
-78.546999999999798
20
180.50000000000006
10
-84.046999999999912
20
180.50000000000006
42
0.41421356237309503
10
-85.046999999999855
20
179.50000000000003
10
-85.046999999999855
20
167.00000000000003
42
0.41421356237309503
10
-74.546999999999883
20
156.5
10
-65.546999999999827
20
156.5
42
-0.41421356237309503
10
-64.546999999999883
20
155.50000000000006
10
-64.546999999999883
20
137.00000000000006
10
-64.546999999999883
20
58.500000000000014
10
-64.546999999999855
20
45
42
-0.41421356237309503
10
-65.546999999999827
20
44.000000000000021
10
-74.546999999999883
20
44.000000000000021
42
0.41421356237309503
10
-85.046999999999855
20
33.500000000000014
0
CIRCLE
5
101
100
AcDbEntity
8
0
100
AcDbCircle
10
-87.546999999999855
20
8.5000000000000107
30
0
40
1.6999999999999893
210
0
220
0
230
1
0
CIRCLE
5
102
100
AcDbEntity
8
0
100
AcDbCircle
10
-540.04696321411552
20
247.50000000000003
30
0
40
1.7000000000000171
210
0
220
0
230
1
0
CIRCLE
5
103
100
AcDbEntity
8
0
100
AcDbCircle
10
-548.54696321411552
20
247.5
30
0
40
1.7000000000000171
210
0
220
0
230
1
0
CIRCLE
5
104
100
AcDbEntity
8
0
100
AcDbCircle
10
-87.546999999999855
20
192.00000000000003
30
0
40
1.6999999999999893
210
0
220
0
230
1
0
CIRCLE
5
105
100
AcDbEntity
8
0
100
AcDbCircle
10
-102.54699999999985
20
192.00000000000003
30
0
40
1.6999999999999893
210
0
220
0
230
1
0
CIRCLE
5
106
100
AcDbEntity
8
0
100
AcDbCircle
10
-102.54699999999985
20
-175
30
0
40
1.6999999999999893
210
0
220
0
230
1
0
CIRCLE
5
107
100
AcDbEntity
8
0
100
AcDbCircle
10
-102.54699999999985
20
8.5000000000000107
30
0
40
1.6999999999999893
210
0
220
0
230
1
0
CIRCLE
5
108
100
AcDbEntity
8
0
100
AcDbCircle
10
-87.546999999999855
20
-175
30
0
40
1.6999999999999893
210
0
220
0
230
1
0
CIRCLE
5
109
100
AcDbEntity
8
0
100
AcDbCircle
10
-548.54696321411552
20
-230.49999999999997
30
0
40
1.7000000000000002
210
0
220
0
230
1
0
CIRCLE
5
110
100
AcDbEntity
8
0
100
AcDbCircle
10
-540.04696321411552
20
-230.49999999999997
30
0
40
1.6999999999999982
210
0
220
0
230
1
0
ENDSEC
0
SECTION
2
OBJECTS
0
DICTIONARY
5
C
100
AcDbDictionary
3
ACAD_GROUP
350
D
3
ACAD_MLINESTYLE
350
17
0
DICTIONARY
5
D
100
AcDbDictionary
0
DICTIONARY
5
1A
330
C
100
AcDbDictionary
0
DICTIONARY
5
17
100
AcDbDictionary
0
ENDSEC
0
EOF
