0
SECTION
2
HEADER
9
$INSUNITS
70
4
9
$ACADVER
1
AC1014
9
$HANDSEED
5
FFFF
0
ENDSEC
0
SECTION
2
TABLES
0
TABLE
2
VPORT
5
8
100
AcDbSymbolTable
0
ENDTAB
0
TABLE
2
LTYPE
5
5
100
AcDbSymbolTable
0
LTYPE
5
14
100
AcDbSymbolTableRecord
100
AcDbLinetypeTableRecord
2
BYBLOCK
70
0
0
LTYPE
5
15
100
AcDbSymbolTableRecord
100
AcDbLinetypeTableRecord
2
BYLAYER
70
0
0
ENDTAB
0
TABLE
2
LAYER
5
2
100
AcDbSymbolTable
70
2
0
LAYER
5
50
100
AcDbSymbolTableRecord
100
AcDbLayerTableRecord
2
0
70
0
6
CONTINUOUS
0
ENDTAB
0
TABLE
2
STYLE
5
3
100
AcDbSymbolTable
70
1
0
STYLE
5
11
100
AcDbSymbolTableRecord
100
AcDbTextStyleTableRecord
2
STANDARD
70
0
0
ENDTAB
0
TABLE
2
VIEW
5
6
100
AcDbSymbolTable
70
0
0
ENDTAB
0
TABLE
2
UCS
5
7
100
AcDbSymbolTable
70
0
0
ENDTAB
0
TABLE
2
APPID
5
9
100
AcDbSymbolTable
70
2
0
APPID
5
12
100
AcDbSymbolTableRecord
100
AcDbRegAppTableRecord
2
ACAD
70
0
0
ENDTAB
0
TABLE
2
DIMSTYLE
5
A
100
AcDbSymbolTable
70
1
0
ENDTAB
0
TABLE
2
BLOCK_RECORD
5
1
100
AcDbSymbolTable
70
1
0
BLOCK_RECORD
5
1F
100
AcDbSymbolTableRecord
100
AcDbBlockTableRecord
2
*MODEL_SPACE
0
BLOCK_RECORD
5
1B
100
AcDbSymbolTableRecord
100
AcDbBlockTableRecord
2
*PAPER_SPACE
0
ENDTAB
0
ENDSEC
0
SECTION
2
BLOCKS
0
BLOCK
5
20
100
AcDbEntity
100
AcDbBlockBegin
2
*MODEL_SPACE
0
ENDBLK
5
21
100
AcDbEntity
100
AcDbBlockEnd
0
BLOCK
5
1C
100
AcDbEntity
100
AcDbBlockBegin
2
*PAPER_SPACE
0
ENDBLK
5
1D
100
AcDbEntity
100
AcDbBlockEnd
0
ENDSEC
0
SECTION
2
ENTITIES
0
LWPOLYLINE
5
100
100
AcDbEntity
8
0
100
AcDbPolyline
90
8
70
1
43
0.0
10
129.99999999999
20
-134.99999999999008
42
0.41421356237309509
10
134.99999999999
20
-129.99999999999005
10
134.99999999999
20
130.00000000000995
42
0.41421356237309404
10
129.99999999999
20
135.00000000000992
10
-130.00000000001
20
135.00000000000992
42
0.41421356237309509
10
-135.00000000001
20
130.00000000000992
10
-135.00000000001
20
-129.99999999999008
42
0.41421356237309509
10
-130.00000000001
20
-134.99999999999008
0
LWPOLYLINE
5
101
100
AcDbEntity
8
0
100
AcDbPolyline
90
8
70
1
43
0.0
10
155.49999999999
20
-165.49999999999005
42
0.41421356237309509
10
165.49999999999
20
-155.49999999999008
10
165.49999999999
20
155.50000000000995
42
0.41421356237309509
10
155.49999999999
20
165.50000000000995
10
-155.50000000001003
20
165.50000000000995
42
0.41421356237309553
10
-165.50000000001003
20
155.50000000000992
10
-165.50000000001003
20
-155.49999999999011
42
0.41421356237309448
10
-155.50000000001003
20
-165.49999999999005
0
CIRCLE
5
102
100
AcDbEntity
8
0
100
AcDbCircle
10
-23.50000000000998
20
155.00000000000992
30
7.6293944850647222e-06
40
1.6000000000000014
210
-1.483197339497911e-40
220
1.1442372108437949e-17
230
1
0
CIRCLE
5
103
100
AcDbEntity
8
0
100
AcDbCircle
10
116.49999999999004
20
155.00000000000986
30
7.6293944850647222e-06
40
1.6000000000000014
210
-1.483197339497911e-40
220
1.1442372108437949e-17
230
1
0
CIRCLE
5
104
100
AcDbEntity
8
0
100
AcDbCircle
10
-72.000000000009976
20
155.00000000000998
30
7.6293944850647222e-06
40
1.6000000000000014
210
-1.483197339497911e-40
220
1.1442372108437949e-17
230
1
0
CIRCLE
5
105
100
AcDbEntity
8
0
100
AcDbCircle
10
22.999999999990024
20
155.00000000000992
30
7.6293944850647222e-06
40
1.6000000000000014
210
-1.483197339497911e-40
220
1.1442372108437949e-17
230
1
0
CIRCLE
5
106
100
AcDbEntity
8
0
100
AcDbCircle
10
71.499999999990038
20
155.00000000000989
30
7.6293944850647222e-06
40
1.6000000000000014
210
-1.483197339497911e-40
220
1.1442372108437949e-17
230
1
0
CIRCLE
5
107
100
AcDbEntity
8
0
100
AcDbCircle
10
-116.50000000000988
20
155.00000000000998
30
7.6293944850647222e-06
40
1.6000000000000014
210
-1.483197339497911e-40
220
1.1442372108437949e-17
230
1
0
CIRCLE
5
108
100
AcDbEntity
8
0
100
AcDbCircle
10
154.99999999999002
20
23.500000000009873
30
7.6293944983873985e-06
40
1.6000000000000014
210
3.3990775352974862e-33
220
-5.343781587986778e-24
230
1
0
CIRCLE
5
109
100
AcDbEntity
8
0
100
AcDbCircle
10
154.99999999999
20
-116.49999999999014
30
7.6293944833993876e-06
40
1.6000000000000014
210
3.3990775352974889e-33
220
-5.343781587986778e-24
230
1
0
CIRCLE
5
110
100
AcDbEntity
8
0
100
AcDbCircle
10
154.99999999999002
20
72.000000000009862
30
7.6293944806238301e-06
40
1.6000000000000014
210
3.3990775352974875e-33
220
-5.343781587986778e-24
230
1
0
CIRCLE
5
111
100
AcDbEntity
8
0
100
AcDbCircle
10
154.99999999999002
20
-22.999999999990131
30
7.6293944722971574e-06
40
1.6000000000000014
210
3.3990775352974889e-33
220
-5.343781587986778e-24
230
1
0
CIRCLE
5
112
100
AcDbEntity
8
0
100
AcDbCircle
10
154.99999999999
20
-71.499999999990138
30
7.6293944778482725e-06
40
1.6000000000000014
210
3.3990775352974889e-33
220
-5.343781587986778e-24
230
1
0
CIRCLE
5
113
100
AcDbEntity
8
0
100
AcDbCircle
10
154.99999999999005
20
116.50000000000985
30
7.6293944911709488e-06
40
1.6000000000000014
210
-1.4831973392840898e-40
220
-1.0762088384065183e-17
230
1
0
CIRCLE
5
114
100
AcDbEntity
8
0
100
AcDbCircle
10
23.499999999989996
20
-154.99999999999008
30
7.6293944883953912e-06
40
1.6000000000000014
210
3.3990775352974869e-33
220
-5.343781587986778e-24
230
1
0
CIRCLE
5
115
100
AcDbEntity
8
0
100
AcDbCircle
10
-116.50000000001003
20
-154.99999999999008
30
7.6293944883953912e-06
40
1.6000000000000014
210
3.3990775352974869e-33
220
-5.343781587986778e-24
230
1
0
CIRCLE
5
116
100
AcDbEntity
8
0
100
AcDbCircle
10
71.99999999999001
20
-154.99999999999008
30
7.6293944883953912e-06
40
1.6000000000000014
210
3.3990775352974869e-33
220
-5.343781587986778e-24
230
1
0
CIRCLE
5
117
100
AcDbEntity
8
0
100
AcDbCircle
10
-23.000000000010026
20
-154.99999999999008
30
7.6293944883953912e-06
40
1.6000000000000014
210
3.3990775352974869e-33
220
-5.343781587986778e-24
230
1
0
CIRCLE
5
118
100
AcDbEntity
8
0
100
AcDbCircle
10
-71.500000000010019
20
-154.99999999999008
30
7.6293944883953912e-06
40
1.6000000000000014
210
3.3990775352974869e-33
220
-5.343781587986778e-24
230
1
0
CIRCLE
5
119
100
AcDbEntity
8
0
100
AcDbCircle
10
116.49999999998997
20
-154.99999999999017
30
7.6293944883953912e-06
40
1.6000000000000014
210
3.3990775352974889e-33
220
-5.343781587986778e-24
230
1
0
CIRCLE
5
120
100
AcDbEntity
8
0
100
AcDbCircle
10
-155.00000000001
20
-23.499999999990031
30
7.6293944722971574e-06
40
1.6000000000000014
210
-1.4831973405670168e-40
220
1.2246467457095361e-16
230
1
0
CIRCLE
5
121
100
AcDbEntity
8
0
100
AcDbCircle
10
-155.00000000000992
20
116.50000000001002
30
7.6293945155958554e-06
40
1.6000000000000014
210
-1.4831973384288051e-40
220
-9.9579930354077711e-17
230
1
0
CIRCLE
5
122
100
AcDbEntity
8
0
100
AcDbCircle
10
-155.00000000001006
20
-71.99999999999001
30
7.6293944778482725e-06
40
1.6000000000000014
210
-1.4831973405670168e-40
220
1.2246467457095361e-16
230
1
0
CIRCLE
5
123
100
AcDbEntity
8
0
100
AcDbCircle
10
-155.00000000000998
20
23.000000000010008
30
7.6293944667460423e-06
40
1.6000000000000014
210
-1.4831973405670168e-40
220
1.2246467457095361e-16
230
1
0
CIRCLE
5
124
100
AcDbEntity
8
0
100
AcDbCircle
10
-155.00000000000995
20
71.500000000010019
30
7.6293944606398156e-06
40
1.6000000000000014
210
-1.4831973405670168e-40
220
1.2246467457095361e-16
230
1
0
CIRCLE
5
125
100
AcDbEntity
8
0
100
AcDbCircle
10
-155.00000000001
20
-116.49999999999008
30
7.6293944833993876e-06
40
1.6000000000000014
210
3.3990775352974869e-33
220
-5.343781587986778e-24
230
1
0
CIRCLE
5
126
100
AcDbEntity
8
0
100
AcDbCircle
10
-145.00000000001006
20
-23.499999999990031
30
7.6293944722971574e-06
40
1.6000000000000014
210
-1.4831973405670168e-40
220
1.2246467457095361e-16
230
1
0
CIRCLE
5
127
100
AcDbEntity
8
0
100
AcDbCircle
10
-145.00000000001003
20
23.000000000010008
30
7.6293944667460423e-06
40
1.6000000000000014
210
-1.4831973405670168e-40
220
1.2246467457095361e-16
230
1
0
CIRCLE
5
128
100
AcDbEntity
8
0
100
AcDbCircle
10
-145.00000000001006
20
-71.999999999990052
30
7.6293944778482725e-06
40
1.6000000000000014
210
-1.4831973405670168e-40
220
1.2246467457095361e-16
230
1
0
CIRCLE
5
129
100
AcDbEntity
8
0
100
AcDbCircle
10
-145.00000000001
20
116.50000000001002
30
7.6293944550887005e-06
40
1.6000000000000014
210
-1.4831973405670168e-40
220
1.2246467457095361e-16
230
1
0
CIRCLE
5
130
100
AcDbEntity
8
0
100
AcDbCircle
10
-145.00000000001
20
71.500000000009976
30
7.6293944606398156e-06
40
1.6000000000000014
210
-1.4831973405670168e-40
220
1.2246467457095361e-16
230
1
0
CIRCLE
5
131
100
AcDbEntity
8
0
100
AcDbCircle
10
-145.00000000001
20
-116.49999999999008
30
7.6293944833993876e-06
40
1.6000000000000014
210
3.3990775352974869e-33
220
-5.343781587986778e-24
230
1
0
CIRCLE
5
132
100
AcDbEntity
8
0
100
AcDbCircle
10
-23.500000000009962
20
145.00000000001
30
7.6293944850647222e-06
40
1.6000000000000014
210
-1.483197339497911e-40
220
1.1442372108437949e-17
230
1
0
CIRCLE
5
133
100
AcDbEntity
8
0
100
AcDbCircle
10
116.49999999999008
20
145.00000000000998
30
7.6293944850647222e-06
40
1.6000000000000014
210
-1.483197339497911e-40
220
1.1442372108437949e-17
230
1
0
CIRCLE
5
134
100
AcDbEntity
8
0
100
AcDbCircle
10
-72.000000000009976
20
145.00000000001
30
7.6293944850647222e-06
40
1.6000000000000014
210
3.1758962427791274e-34
220
-5.343781587986778e-24
230
1
0
CIRCLE
5
135
100
AcDbEntity
8
0
100
AcDbCircle
10
22.99999999999006
20
145.00000000001
30
7.6293944850647222e-06
40
1.6000000000000014
210
-1.483197339497911e-40
220
1.1442372108437949e-17
230
1
0
CIRCLE
5
136
100
AcDbEntity
8
0
100
AcDbCircle
10
71.499999999990038
20
145.00000000000998
30
7.6293944850647222e-06
40
1.6000000000000014
210
-1.483197339497911e-40
220
1.1442372108437949e-17
230
1
0
CIRCLE
5
137
100
AcDbEntity
8
0
100
AcDbCircle
10
-116.50000000000995
20
145.00000000001
30
7.6293944850647222e-06
40
1.6000000000000014
210
-1.483197339497911e-40
220
1.1442372108437949e-17
230
1
0
CIRCLE
5
138
100
AcDbEntity
8
0
100
AcDbCircle
10
144.99999999999005
20
23.500000000009891
30
7.6293944661909308e-06
40
1.6000000000000014
210
-1.4831973405670168e-40
220
1.2246467457095361e-16
230
1
0
CIRCLE
5
139
100
AcDbEntity
8
0
100
AcDbCircle
10
144.99999999999005
20
-116.49999999999014
30
7.6293944833993876e-06
40
1.6000000000000014
210
-1.4831973405670168e-40
220
1.2246467457095361e-16
230
1
0
CIRCLE
5
140
100
AcDbEntity
8
0
100
AcDbCircle
10
144.99999999999005
20
72.000000000009891
30
7.6293944606398156e-06
40
1.6000000000000014
210
-1.4831973405670168e-40
220
1.2246467457095361e-16
230
1
0
CIRCLE
5
141
100
AcDbEntity
8
0
100
AcDbCircle
10
144.99999999999005
20
-22.999999999990131
30
7.6293944722971574e-06
40
1.6000000000000014
210
-1.4831973405670168e-40
220
1.2246467457095361e-16
230
1
0
CIRCLE
5
142
100
AcDbEntity
8
0
100
AcDbCircle
10
144.99999999999002
20
-71.499999999990109
30
7.6293944778482725e-06
40
1.6000000000000014
210
-1.4831973405670168e-40
220
1.2246467457095361e-16
230
1
0
CIRCLE
5
143
100
AcDbEntity
8
0
100
AcDbCircle
10
144.99999999999005
20
116.50000000000992
30
7.6293944550887005e-06
40
1.6000000000000014
210
-1.4831973405670168e-40
220
1.2246467457095361e-16
230
1
0
CIRCLE
5
144
100
AcDbEntity
8
0
100
AcDbCircle
10
23.499999999989996
20
-144.99999999999008
30
7.6293944872851682e-06
40
1.6000000000000014
210
3.3990775352974869e-33
220
-5.343781587986778e-24
230
1
0
CIRCLE
5
145
100
AcDbEntity
8
0
100
AcDbCircle
10
-116.50000000001003
20
-144.99999999999008
30
7.6293944872851682e-06
40
1.6000000000000014
210
3.3990775352974869e-33
220
-5.343781587986778e-24
230
1
0
CIRCLE
5
146
100
AcDbEntity
8
0
100
AcDbCircle
10
71.999999999989967
20
-144.99999999999008
30
7.6293944872851682e-06
40
1.6000000000000014
210
3.3990775352974869e-33
220
-5.343781587986778e-24
230
1
0
CIRCLE
5
147
100
AcDbEntity
8
0
100
AcDbCircle
10
-23.000000000010026
20
-144.99999999999008
30
7.6293944872851682e-06
40
1.6000000000000014
210
3.3990775352974869e-33
220
-5.343781587986778e-24
230
1
0
CIRCLE
5
148
100
AcDbEntity
8
0
100
AcDbCircle
10
-71.500000000010019
20
-144.99999999999008
30
7.6293944872851682e-06
40
1.6000000000000014
210
3.3990775352974869e-33
220
-5.343781587986778e-24
230
1
0
CIRCLE
5
149
100
AcDbEntity
8
0
100
AcDbCircle
10
116.49999999999004
20
-144.99999999999017
30
7.6293944872851682e-06
40
1.6000000000000014
210
-1.4831973405670168e-40
220
1.2246467457095361e-16
230
1
0
CIRCLE
5
150
100
AcDbEntity
8
0
100
AcDbCircle
10
149.99999999999
20
-133.99999999999108
30
7.6293944860361673e-06
40
5.5
210
-1.4831973393877249e-40
220
-5.343781587986778e-24
230
1
0
CIRCLE
5
151
100
AcDbEntity
8
0
100
AcDbCircle
10
149.99999999999
20
-149.99999999999108
30
7.6293944879790576e-06
40
5.5
210
-1.4831973393877249e-40
220
-5.343781587986778e-24
230
1
0
CIRCLE
5
152
100
AcDbEntity
8
0
100
AcDbCircle
10
133.99999999998997
20
-149.99999999999108
30
7.6293944879790576e-06
40
5.5
210
-1.4831973393877249e-40
220
-5.343781587986778e-24
230
1
0
CIRCLE
5
153
100
AcDbEntity
8
0
100
AcDbCircle
10
-134.00000000001003
20
-149.99999999999008
30
7.6293944879790576e-06
40
5.5
210
-1.4831973393877249e-40
220
-5.343781587986778e-24
230
1
0
CIRCLE
5
154
100
AcDbEntity
8
0
100
AcDbCircle
10
-150.00000000001003
20
-149.99999999999008
30
7.6293944879790576e-06
40
5.5
210
-1.4831973393877249e-40
220
-5.343781587986778e-24
230
1
0
CIRCLE
5
155
100
AcDbEntity
8
0
100
AcDbCircle
10
-150.00000000001003
20
-133.99999999999008
30
7.6293944860361673e-06
40
5.5
210
-1.4831973393877249e-40
220
-5.343781587986778e-24
230
1
0
CIRCLE
5
156
100
AcDbEntity
8
0
100
AcDbCircle
10
-133.99943229686409
20
149.98386570760158
30
7.629394488672947e-06
40
5.5
210
-1.4831973393877249e-40
220
-5.343781587986778e-24
230
1
0
CIRCLE
5
157
100
AcDbEntity
8
0
100
AcDbCircle
10
-149.99943229686403
20
149.98386570760158
30
7.629394488672947e-06
40
5.5
210
-1.4831973393877249e-40
220
-5.343781587986778e-24
230
1
0
CIRCLE
5
158
100
AcDbEntity
8
0
100
AcDbCircle
10
-149.99943229686403
20
133.98386570760161
30
7.6293945175387456e-06
40
5.5
210
-1.4831973393877249e-40
220
-5.343781587986778e-24
230
1
0
CIRCLE
5
159
100
AcDbEntity
8
0
100
AcDbCircle
10
149.99943229682398
20
149.98386570760155
30
7.629394488672947e-06
40
5.5
210
-1.4831973393877249e-40
220
-5.343781587986778e-24
230
1
0
CIRCLE
5
160
100
AcDbEntity
8
0
100
AcDbCircle
10
133.99943229682395
20
149.98386570760155
30
7.629394488672947e-06
40
5.5
210
-1.4831973393877249e-40
220
-5.343781587986778e-24
230
1
0
CIRCLE
5
161
100
AcDbEntity
8
0
100
AcDbCircle
10
149.99943229682398
20
133.98386570760155
30
7.6293945175387456e-06
40
5.5
210
-1.4831973393877249e-40
220
-5.343781587986778e-24
230
1
0
ENDSEC
0
SECTION
2
OBJECTS
0
DICTIONARY
5
C
100
AcDbDictionary
3
ACAD_GROUP
350
D
3
ACAD_MLINESTYLE
350
17
0
DICTIONARY
5
D
100
AcDbDictionary
0
DICTIONARY
5
1A
330
C
100
AcDbDictionary
0
DICTIONARY
5
17
100
AcDbDictionary
0
ENDSEC
0
EOF
