0
SECTION
2
HEADER
9
$INSUNITS
70
4
9
$ACADVER
1
AC1014
9
$HANDSEED
5
FFFF
0
ENDSEC
0
SECTION
2
TABLES
0
TABLE
2
VPORT
5
8
100
AcDbSymbolTable
0
ENDTAB
0
TABLE
2
LTYPE
5
5
100
AcDbSymbolTable
0
LTYPE
5
14
100
AcDbSymbolTableRecord
100
AcDbLinetypeTableRecord
2
BYBLOCK
70
0
0
LTYPE
5
15
100
AcDbSymbolTableRecord
100
AcDbLinetypeTableRecord
2
BYLAYER
70
0
0
ENDTAB
0
TABLE
2
LAYER
5
2
100
AcDbSymbolTable
70
2
0
LAYER
5
50
100
AcDbSymbolTableRecord
100
AcDbLayerTableRecord
2
0
70
0
6
CONTINUOUS
0
ENDTAB
0
TABLE
2
STYLE
5
3
100
AcDbSymbolTable
70
1
0
STYLE
5
11
100
AcDbSymbolTableRecord
100
AcDbTextStyleTableRecord
2
STANDARD
70
0
0
ENDTAB
0
TABLE
2
VIEW
5
6
100
AcDbSymbolTable
70
0
0
ENDTAB
0
TABLE
2
UCS
5
7
100
AcDbSymbolTable
70
0
0
ENDTAB
0
TABLE
2
APPID
5
9
100
AcDbSymbolTable
70
2
0
APPID
5
12
100
AcDbSymbolTableRecord
100
AcDbRegAppTableRecord
2
ACAD
70
0
0
ENDTAB
0
TABLE
2
DIMSTYLE
5
A
100
AcDbSymbolTable
70
1
0
ENDTAB
0
TABLE
2
BLOCK_RECORD
5
1
100
AcDbSymbolTable
70
1
0
BLOCK_RECORD
5
1F
100
AcDbSymbolTableRecord
100
AcDbBlockTableRecord
2
*MODEL_SPACE
0
BLOCK_RECORD
5
1B
100
AcDbSymbolTableRecord
100
AcDbBlockTableRecord
2
*PAPER_SPACE
0
ENDTAB
0
ENDSEC
0
SECTION
2
BLOCKS
0
BLOCK
5
20
100
AcDbEntity
100
AcDbBlockBegin
2
*MODEL_SPACE
0
ENDBLK
5
21
100
AcDbEntity
100
AcDbBlockEnd
0
BLOCK
5
1C
100
AcDbEntity
100
AcDbBlockBegin
2
*PAPER_SPACE
0
ENDBLK
5
1D
100
AcDbEntity
100
AcDbBlockEnd
0
ENDSEC
0
SECTION
2
ENTITIES
0
LWPOLYLINE
5
100
100
AcDbEntity
8
0
100
AcDbPolyline
90
58
70
1
43
0.0
10
-215.678326657431
20
-162.495770308891
10
-216.68868083099983
20
-162.58416484522434
10
-228.25885780535754
20
-176.372964821366
10
-230.06616773739978
20
-176.53108395189747
10
-294.45790614883299
20
-122.5
10
-310
20
-122.49999999999999
10
-309.99999999999994
20
-241.99999999999994
10
-304.99999999999994
20
-246.99999999999994
10
-294.99999999999994
20
-246.99999999999994
10
-289.99999999999994
20
-251.99999999999994
10
-289.99999999999994
20
-289
10
-287
20
-291.99999999999994
10
-251.99999999999994
20
-291.99999999999994
10
-246.99999999999994
20
-296.99999999999994
10
-246.99999999999994
20
-304.99999999999994
10
-241.99999999999994
20
-309.99999999999994
10
-216.99999999999994
20
-309.99999999999994
10
-212
20
-304.99999999999994
10
-212
20
-297
10
-207
20
-292
10
-185.74999999999994
20
-292
10
-180.74999999999994
20
-287
10
-180.74999999999994
20
-272
10
-178.74999999999997
20
-269.99999999999994
10
-170.74999999999994
20
-269.99999999999994
10
-168.74999999999997
20
-272
10
-168.74999999999997
20
-287
10
-163.74999999999997
20
-292
10
-162.74999999999994
20
-292
10
-153.53553390593271
20
-282.78553390593299
10
-146.46446609406723
20
-282.78553390593299
10
-137.24999999999997
20
-292
10
-92.999999999999972
20
-292.00000000000006
10
-87.999999999999972
20
-297.00000000000006
10
-87.999999999999972
20
-304.99999999999994
10
-82.999999999999972
20
-309.99999999999994
10
-57.999999999999972
20
-309.99999999999994
10
-52.999999999999972
20
-304.99999999999994
10
-52.999999999999972
20
-296.99999999999994
10
-47.999999999999972
20
-291.99999999999994
10
-12.999999999999936
20
-291.99999999999994
10
-9.9999999999999645
20
-289
10
-9.9999999999999645
20
-251.99999999999994
10
-4.9999999999999645
20
-246.99999999999994
10
5.0000000000000355
20
-246.99999999999994
10
10.000000000000036
20
-241.99999999999994
10
10
20
-122.5
10
-9.9999999999999822
20
-122.49999999999999
10
-47.742661180436968
20
-167.47995205585181
10
-49.549971112479163
20
-167.63807118638329
10
-55.678326657431029
20
-162.49577030889097
10
-56.688680830999836
20
-162.58416484522434
10
-68.25885780535755
20
-176.372964821366
10
-70.066167737399766
20
-176.53108395189747
10
-134.45790614883302
20
-122.49999999999999
10
-170
20
-122.49999999999999
10
-207.74266118043698
20
-167.47995205585181
10
-209.54997111247917
20
-167.63807118638329
0
LWPOLYLINE
5
101
100
AcDbEntity
8
0
100
AcDbPolyline
90
16
70
1
43
0.0
10
-200.49999999999997
20
-236.99999999999994
10
-199.49999999999994
20
-237.99999999999997
10
-195.99999999999997
20
-237.99999999999997
10
-193.99999999999994
20
-239.99999999999997
10
-193.99999999999994
20
-259.99999999999994
10
-195.99999999999997
20
-262
10
-199.49999999999994
20
-262
10
-200.49999999999997
20
-262.99999999999994
10
-200.49999999999997
20
-271.99999999999994
10
-204.5
20
-275.99999999999994
10
-211
20
-275.99999999999994
10
-214.99999999999994
20
-272
10
-214.99999999999994
20
-227.99999999999997
10
-210.99999999999997
20
-223.99999999999994
10
-204.50000000000003
20
-223.99999999999994
10
-200.49999999999997
20
-227.99999999999997
0
CIRCLE
5
102
100
AcDbEntity
8
0
100
AcDbCircle
10
-190.99999999999994
20
-249.99999999999997
30
-9.5367431951487447e-07
40
1.7000000000000171
210
0
220
0
230
1
0
CIRCLE
5
103
100
AcDbEntity
8
0
100
AcDbCircle
10
-61.999999999999957
20
-246.99999999999994
30
-9.5367432173532052e-07
40
12.5
210
0
220
0
230
1
0
CIRCLE
5
104
100
AcDbEntity
8
0
100
AcDbCircle
10
-229.49999999999994
20
-299.99999999999994
30
-9.5367432173532052e-07
40
1.6000000000000003
210
0
220
0
230
1
0
CIRCLE
5
105
100
AcDbEntity
8
0
100
AcDbCircle
10
-70.499999999999972
20
-299.99999999999994
30
-9.5367432173532052e-07
40
1.6000000000000003
210
0
220
0
230
1
0
CIRCLE
5
106
100
AcDbEntity
8
0
100
AcDbCircle
10
-299.99999999999994
20
-204.99999999999997
30
-9.5367432173532052e-07
40
1.6000000000000003
210
0
220
0
230
1
0
CIRCLE
5
107
100
AcDbEntity
8
0
100
AcDbCircle
10
-149.99999999999997
20
-204.99999999999997
30
-9.5367432173532052e-07
40
1.6000000000000003
210
0
220
0
230
1
0
CIRCLE
5
108
100
AcDbEntity
8
0
100
AcDbCircle
10
3.5527136788005009e-14
20
-204.99999999999997
30
-9.5367432173532052e-07
40
1.6000000000000003
210
0
220
0
230
1
0
CIRCLE
5
109
100
AcDbEntity
8
0
100
AcDbCircle
10
-149.99999999999997
20
-259.99999999999994
30
-9.5367432173532052e-07
40
1.6000000000000003
210
0
220
0
230
1
0
CIRCLE
5
110
100
AcDbEntity
8
0
100
AcDbCircle
10
-299.99999999999994
20
-149.99999999999997
30
-9.5367432173532052e-07
40
1.6000000000000003
210
0
220
0
230
1
0
CIRCLE
5
111
100
AcDbEntity
8
0
100
AcDbCircle
10
-149.99999999999997
20
-149.99999999999997
30
-9.5367432173532052e-07
40
1.6000000000000003
210
0
220
0
230
1
0
CIRCLE
5
112
100
AcDbEntity
8
0
100
AcDbCircle
10
3.5527136788005009e-14
20
-149.99999999999997
30
-9.5367432173532052e-07
40
1.6000000000000003
210
0
220
0
230
1
0
ENDSEC
0
SECTION
2
OBJECTS
0
DICTIONARY
5
C
100
AcDbDictionary
3
ACAD_GROUP
350
D
3
ACAD_MLINESTYLE
350
17
0
DICTIONARY
5
D
100
AcDbDictionary
0
DICTIONARY
5
1A
330
C
100
AcDbDictionary
0
DICTIONARY
5
17
100
AcDbDictionary
0
ENDSEC
0
EOF
