0
SECTION
2
HEADER
9
$INSUNITS
70
4
9
$ACADVER
1
AC1014
9
$HANDSEED
5
FFFF
0
ENDSEC
0
SECTION
2
TABLES
0
TABLE
2
VPORT
5
8
100
AcDbSymbolTable
0
ENDTAB
0
TABLE
2
LTYPE
5
5
100
AcDbSymbolTable
0
LTYPE
5
14
100
AcDbSymbolTableRecord
100
AcDbLinetypeTableRecord
2
BYBLOCK
70
0
0
LTYPE
5
15
100
AcDbSymbolTableRecord
100
AcDbLinetypeTableRecord
2
BYLAYER
70
0
0
ENDTAB
0
TABLE
2
LAYER
5
2
100
AcDbSymbolTable
70
2
0
LAYER
5
50
100
AcDbSymbolTableRecord
100
AcDbLayerTableRecord
2
0
70
0
6
CONTINUOUS
0
ENDTAB
0
TABLE
2
STYLE
5
3
100
AcDbSymbolTable
70
1
0
STYLE
5
11
100
AcDbSymbolTableRecord
100
AcDbTextStyleTableRecord
2
STANDARD
70
0
0
ENDTAB
0
TABLE
2
VIEW
5
6
100
AcDbSymbolTable
70
0
0
ENDTAB
0
TABLE
2
UCS
5
7
100
AcDbSymbolTable
70
0
0
ENDTAB
0
TABLE
2
APPID
5
9
100
AcDbSymbolTable
70
2
0
APPID
5
12
100
AcDbSymbolTableRecord
100
AcDbRegAppTableRecord
2
ACAD
70
0
0
ENDTAB
0
TABLE
2
DIMSTYLE
5
A
100
AcDbSymbolTable
70
1
0
ENDTAB
0
TABLE
2
BLOCK_RECORD
5
1
100
AcDbSymbolTable
70
1
0
BLOCK_RECORD
5
1F
100
AcDbSymbolTableRecord
100
AcDbBlockTableRecord
2
*MODEL_SPACE
0
BLOCK_RECORD
5
1B
100
AcDbSymbolTableRecord
100
AcDbBlockTableRecord
2
*PAPER_SPACE
0
ENDTAB
0
ENDSEC
0
SECTION
2
BLOCKS
0
BLOCK
5
20
100
AcDbEntity
100
AcDbBlockBegin
2
*MODEL_SPACE
0
ENDBLK
5
21
100
AcDbEntity
100
AcDbBlockEnd
0
BLOCK
5
1C
100
AcDbEntity
100
AcDbBlockBegin
2
*PAPER_SPACE
0
ENDBLK
5
1D
100
AcDbEntity
100
AcDbBlockEnd
0
ENDSEC
0
SECTION
2
ENTITIES
0
LWPOLYLINE
5
100
100
AcDbEntity
8
0
100
AcDbPolyline
90
44
70
1
43
0.0
10
-229.91112606594808
20
-176.00847571656351
10
-228.50229401314255
20
-175.8852188831311
10
-216.93211703878487
20
-162.09641890698947
10
-215.52328498597933
20
-161.97316207355703
10
-209.39492944102753
20
-167.11546295104935
10
-207.98609738822196
20
-166.99220611761692
10
-170.23315382907751
20
-121.99999999999997
10
-134.27592103169994
20
-121.99999999999997
10
-69.91112606594811
20
-176.00847571656351
10
-68.502294013142603
20
-175.8852188831311
10
-56.932117038784881
20
-162.09641890698947
10
-55.523284985979373
20
-161.97316207355701
10
-49.394929441027529
20
-167.11546295104935
10
-47.986097388222007
20
-166.99220611761692
10
-10.233153829077484
20
-121.99999999999997
10
10
20
-122
10
10
20
-33.278174593052015
10
-5
20
-18.278174593051997
10
-9.7928932188129814
20
-18.278174593051997
10
-22.520815280171007
20
-31.006096654409987
10
-25.349242404917991
20
-31.006096654409987
10
-31.006096654409987
20
-25.349242404917991
10
-31.006096654409987
20
-22.520815280171007
10
-20.399494936611617
20
-11.914213562372638
10
-21.278174593052004
20
-9.7928932188129814
10
-48.000000000000007
20
-9.7928932188129814
10
-53.000000000000007
20
-4.7928932188129814
10
-53.000000000000007
20
9.0000000000000213
10
-54
20
10
10
-245.72182540694797
20
10
10
-246.72182540694797
20
8.9999999999999858
10
-246.72182540694797
20
-4.7928932188129636
10
-251.72182540694797
20
-9.7928932188129814
10
-278.72182540694803
20
-9.7928932188129814
10
-279.60050506338837
20
-11.914213562372638
10
-268.99390334559001
20
-22.520815280171007
10
-268.99390334559001
20
-25.349242404917991
10
-274.65075759508204
20
-31.006096654409987
10
-277.47918471982899
20
-31.006096654409987
10
-290.20710678118701
20
-18.278174593051997
10
-295
20
-18.278174593051997
10
-310
20
-33.278174593051958
10
-310
20
-122.11697777844051
10
-294.13651234398975
20
-122.11697777844051
0
LWPOLYLINE
5
101
100
AcDbEntity
8
0
100
AcDbPolyline
90
16
70
1
43
0.0
10
-60.103540700236294
20
-21.707642481806992
10
-58.689327137863287
20
-21.707642481806992
10
-52.325366107184301
20
-15.343681451128006
10
-46.668511857691897
20
-15.343681451127971
10
-42.072317779978974
20
-19.939875528840929
10
-42.072317779979031
20
-25.59672977833312
10
-73.185016152186861
20
-56.709428150540901
10
-78.84187040167987
20
-56.709428150540901
10
-83.438064479392409
20
-52.113234072828369
10
-83.438064479392381
20
-46.456379823335787
10
-77.074103448713501
20
-40.092418792656908
10
-77.074103448713501
20
-38.678205230283993
10
-79.548977182866395
20
-36.203331496130993
10
-79.548977182866395
20
-33.374904371384986
10
-65.406841559135401
20
-19.232768747653992
10
-62.578414434389202
20
-19.232768747653992
0
LWPOLYLINE
5
102
100
AcDbEntity
8
0
100
AcDbPolyline
90
16
70
1
43
0.0
10
-241.3106728621367
20
-21.707642481806992
10
-239.89645929976371
20
-21.707642481806992
10
-237.4215855656108
20
-19.232768747653992
10
-234.59315844086461
20
-19.232768747653992
10
-220.45102281713361
20
-33.374904371384986
10
-220.45102281713361
20
-36.203331496130993
10
-222.92589655128651
20
-38.678205230283993
10
-222.92589655128651
20
-40.092418792656908
10
-216.56193552060762
20
-46.456379823335787
10
-216.56193552060759
20
-52.113234072828369
10
-221.15812959832013
20
-56.709428150540901
10
-226.81498384781315
20
-56.709428150540901
10
-257.92768222002104
20
-25.596729778333085
10
-257.92768222002104
20
-19.939875528840911
10
-253.3314881423081
20
-15.343681451127971
10
-247.67463389281571
20
-15.343681451128006
0
CIRCLE
5
103
100
AcDbEntity
8
0
100
AcDbCircle
10
-300
20
-40
30
-9.5367431951487447e-07
40
1.6000000000000003
210
0
220
0
230
1
0
CIRCLE
5
104
100
AcDbEntity
8
0
100
AcDbCircle
10
-150
20
-40
30
-9.5367431951487447e-07
40
1.6000000000000003
210
0
220
0
230
1
0
CIRCLE
5
105
100
AcDbEntity
8
0
100
AcDbCircle
10
0
20
-40
30
-9.5367431951487447e-07
40
1.6000000000000003
210
0
220
0
230
1
0
CIRCLE
5
106
100
AcDbEntity
8
0
100
AcDbCircle
10
-300
20
-95
30
-9.5367431951487447e-07
40
1.6000000000000003
210
0
220
0
230
1
0
CIRCLE
5
107
100
AcDbEntity
8
0
100
AcDbCircle
10
-150
20
-95
30
-9.5367431951487447e-07
40
1.6000000000000003
210
0
220
0
230
1
0
CIRCLE
5
108
100
AcDbEntity
8
0
100
AcDbCircle
10
0
20
-95
30
-9.5367431951487447e-07
40
1.6000000000000003
210
0
220
0
230
1
0
CIRCLE
5
109
100
AcDbEntity
8
0
100
AcDbCircle
10
-205
20
0
30
-9.5367431951487447e-07
40
1.6000000000000003
210
0
220
0
230
1
0
CIRCLE
5
110
100
AcDbEntity
8
0
100
AcDbCircle
10
-95
20
0
30
-9.5367431951487447e-07
40
1.6000000000000003
210
0
220
0
230
1
0
CIRCLE
5
111
100
AcDbEntity
8
0
100
AcDbCircle
10
-150
20
0
30
-9.5367431951487447e-07
40
1.6000000000000003
210
0
220
0
230
1
0
CIRCLE
5
112
100
AcDbEntity
8
0
100
AcDbCircle
10
-225.40077028543948
20
-24.182516215959851
30
-9.5367431951487447e-07
40
1.7000000000000171
210
0
220
0
230
1
0
CIRCLE
5
113
100
AcDbEntity
8
0
100
AcDbCircle
10
-74.599229714560551
20
-24.182516215959851
30
-9.5367431951487447e-07
40
1.6999999999999993
210
0
220
0
230
1
0
ENDSEC
0
SECTION
2
OBJECTS
0
DICTIONARY
5
C
100
AcDbDictionary
3
ACAD_GROUP
350
D
3
ACAD_MLINESTYLE
350
17
0
DICTIONARY
5
D
100
AcDbDictionary
0
DICTIONARY
5
1A
330
C
100
AcDbDictionary
0
DICTIONARY
5
17
100
AcDbDictionary
0
ENDSEC
0
EOF
